<svg width="40" height="32" viewBox="0 0 40 32" fill="none" xmlns="http://www.w3.org/2000/svg">
<path opacity="0.6" d="M13.1241 9.33333C13.1241 8.59695 13.7211 8 14.4574 8H31.6667C32.403 8 33 8.59695 33 9.33333C33 10.0697 32.403 10.6667 31.6667 10.6667H14.4574C13.7211 10.6667 13.1241 10.0697 13.1241 9.33333ZM13 16C13 15.2636 13.597 14.6667 14.3333 14.6667H31.6667C32.403 14.6667 33 15.2636 33 16C33 16.7364 32.403 17.3333 31.6667 17.3333H14.3333C13.597 17.3333 13 16.7364 13 16ZM13 22.6667C13 21.9303 13.597 21.3333 14.3333 21.3333H31.6667C32.403 21.3333 33 21.9303 33 22.6667C33 23.403 32.403 24 31.6667 24H14.3333C13.597 24 13 23.403 13 22.6667Z" fill="#737373"/>
</svg>
